<svg xmlns="http://www.w3.org/2000/svg" width="13" height="13" viewBox="0 0 24 24"><path fill="#91979c" d="m 0,12.453111 v 6.845569 c 0,2.063408 1.7184191,3.778243 3.910999,3.778243 H 20.089006 C 22.281587,23.076923 24,21.362088 24,19.29868 V 8.2426791 C 24,6.1792697 22.281587,4.5480395 20.089006,4.5480395 H 17.555525 C 17.229562,2.1778694 15.540702,0.9230769 13.851841,0.9230769 H 9.674244 C 8,0.9230769 6.2964455,2.1778694 5.9704895,4.5480395 H 3.8963766 C 1.7184191,4.5480395 0,6.1792697 0,8.2426791 Z m 20.089006,8.96484 H 3.910999 c -1.2146822,0 -2.1332288,-0.961854 -2.1332288,-2.105235 v -4.600859 c 1.3333509,1.171179 3.7480957,2.509652 7.4962778,2.941818 0.192629,1.101323 1.185139,1.951758 2.414764,1.951758 h 0.237053 c 1.229625,0 2.222388,-0.836368 2.414763,-1.951758 3.911248,-0.460225 6.533576,-1.896117 7.866729,-3.067298 v 4.726339 c 0.01486,1.143381 -0.903662,2.105235 -2.118351,2.105235 z m -7.496277,-4.154649 c 0,0.362383 -0.311094,0.669137 -0.711287,0.669137 h -0.20731 c -0.385259,0 -0.711223,-0.292759 -0.711223,-0.669137 V 14.97681 c 0,-0.362622 0.311283,-0.669381 0.711223,-0.669381 h 0.20731 c 0.385322,0 0.711287,0.292764 0.711287,0.669381 z M 9.674244,2.5961136 h 4.177597 c 0.948087,0 1.659308,0.8366079 1.896424,1.9519259 H 7.777819 C 8.014872,3.4327215 8.725903,2.5961136 9.674244,2.5961136 Z M 3.910999,6.2210761 h 16.178007 c 1.214689,0 2.133222,0.8784746 2.133222,2.021603 v 3.9457179 c -0.147951,0.30652 -0.829685,0.934095 -1.822192,1.617235 -1.170268,0.794561 -3.066692,1.770644 -6.029601,2.161016 v -0.962085 c 0,-1.296599 -1.066739,-2.370171 -2.44457,-2.370171 h -0.236798 c -1.377832,0 -2.50393,1.073572 -2.50393,2.370171 v 0.975903 C 4.1481042,15.325378 2.2221212,12.885349 1.7777702,12.230261 V 8.2426791 c 0,-1.1431284 0.9185466,-2.021603 2.1332288,-2.021603 z"/></svg>